<svg width="8" height="6" viewBox="0 0 8 6" fill="none" xmlns="http://www.w3.org/2000/svg">
<path d="M7.62435 3C7.62435 4.48149 6.19113 5.75 4.33268 5.75C2.47424 5.75 1.04102 4.48149 1.04102 3C1.04102 1.51851 2.47424 0.25 4.33268 0.25C6.19113 0.25 7.62435 1.51851 7.62435 3Z" stroke="#335E74" stroke-width="0.5"/>
<path d="M4.34619 2.12646C4.24365 2.12646 4.15186 2.14502 4.0708 2.18213C3.99072 2.21924 3.92285 2.27295 3.86719 2.34326C3.81152 2.4126 3.76904 2.49707 3.73975 2.59668C3.71045 2.69531 3.6958 2.80664 3.6958 2.93066C3.6958 3.09668 3.71924 3.23975 3.76611 3.35986C3.81299 3.479 3.88428 3.5708 3.97998 3.63525C4.07568 3.69873 4.19678 3.73047 4.34326 3.73047C4.43408 3.73047 4.52246 3.72168 4.6084 3.7041C4.69434 3.68652 4.7832 3.6626 4.875 3.63232V3.93115C4.78809 3.96533 4.7002 3.99023 4.61133 4.00586C4.52246 4.02148 4.41992 4.0293 4.30371 4.0293C4.08496 4.0293 3.90332 3.98389 3.75879 3.89307C3.61523 3.80225 3.50781 3.67432 3.43652 3.50928C3.36621 3.34424 3.33105 3.15088 3.33105 2.9292C3.33105 2.76709 3.35352 2.61865 3.39844 2.48389C3.44336 2.34912 3.50879 2.23291 3.59473 2.13525C3.68066 2.03662 3.78662 1.96094 3.9126 1.9082C4.03955 1.85449 4.18457 1.82764 4.34766 1.82764C4.45508 1.82764 4.56055 1.83984 4.66406 1.86426C4.76855 1.8877 4.86523 1.92139 4.9541 1.96533L4.83105 2.25537C4.75684 2.22021 4.6792 2.18994 4.59814 2.16455C4.51709 2.13916 4.43311 2.12646 4.34619 2.12646Z" fill="#335E74"/>
</svg>
