<svg width="16" height="13" viewBox="0 0 16 13" fill="none" xmlns="http://www.w3.org/2000/svg">
<path d="M4.76416 0C2.29889 0 0.292969 1.70168 0.292969 3.79234V9.20867C0.292969 11.2991 2.30007 13 4.76596 13H11.1544C13.62 13 15.6262 11.2983 15.6262 9.20766V3.79082C15.6262 1.70068 13.6191 0 11.1532 0H4.76416ZM12.5596 2.08C12.8981 2.08 13.1729 2.31296 13.1729 2.6C13.1729 2.88704 12.8981 3.12 12.5596 3.12C12.221 3.12 11.9462 2.88704 11.9462 2.6C11.9462 2.31296 12.221 2.08 12.5596 2.08ZM7.95958 3.12C10.1584 3.12 11.9462 4.6358 11.9462 6.5C11.9462 8.3642 10.1581 9.88 7.95958 9.88C5.7608 9.88 3.97294 8.36394 3.97294 6.5C3.97294 4.63606 5.7608 3.12 7.95958 3.12ZM7.95958 4.16C6.43515 4.16 5.1996 5.20754 5.1996 6.5C5.1996 7.79246 6.43515 8.84 7.95958 8.84C9.48401 8.84 10.7196 7.79246 10.7196 6.5C10.7196 5.20754 9.48401 4.16 7.95958 4.16Z" fill="#3A5B62"/>
</svg>
