<svg width="22" height="15" viewBox="0 0 22 15" fill="none" xmlns="http://www.w3.org/2000/svg">
<path d="M21.9591 1.77359C21.1788 2.07685 20.3397 2.27902 19.4545 2.37457C20.3546 1.90598 21.0468 1.15859 21.3718 0.275544C20.5297 0.708587 19.5969 1.02652 18.6043 1.19413C17.8117 0.457174 16.6811 0 15.4286 0C13.0226 0 11.0726 1.69565 11.0726 3.7862C11.0726 4.08196 11.112 4.37022 11.1864 4.65C7.56684 4.49054 4.35661 2.98141 2.2089 0.690978C1.83156 1.25054 1.61928 1.90598 1.61928 2.59761C1.61928 3.91207 2.38661 5.06902 3.55656 5.75087C2.8424 5.73163 2.17024 5.5575 1.58173 5.27804C1.58173 5.28946 1.58173 5.30641 1.58173 5.32239C1.58173 7.15924 3.08367 8.68859 5.0745 9.03685C4.71054 9.12424 4.32613 9.17283 3.92982 9.17283C3.64839 9.17283 3.3744 9.14478 3.10895 9.10304C3.66326 10.604 5.27154 11.7013 7.17685 11.7336C5.68606 12.7474 3.80862 13.3546 1.76687 13.3546C1.41406 13.3546 1.06943 13.337 0.728516 13.3008C2.65688 14.372 4.94735 15 7.40586 15C15.4171 15 19.7995 9.22957 19.7995 4.2238C19.7995 4.05978 19.7936 3.89641 19.7847 3.735C20.6401 3.20544 21.377 2.53696 21.9591 1.77359Z" fill="#3A5B62"/>
</svg>
