<svg width="23" height="13" viewBox="0 0 23 13" fill="none" xmlns="http://www.w3.org/2000/svg">
<path d="M21.9486 2.23438C21.7415 1.34094 20.7544 0.690308 19.6089 0.487183C17.8947 0.203125 14.7223 0 11.2899 0C7.85954 0 4.63634 0.203125 2.92014 0.487183C1.77668 0.690308 0.787581 1.29968 0.580418 2.23438C0.371225 3.25 0.164062 4.67188 0.164062 6.5C0.164062 8.32812 0.371225 9.75 0.631194 10.7656C0.840387 11.6591 1.82746 12.3097 2.97091 12.5128C4.79069 12.7969 7.91032 13 11.3427 13C14.7751 13 17.8947 12.7969 19.7145 12.5128C20.858 12.3097 21.845 11.7003 22.0542 10.7656C22.2614 9.75 22.5214 8.28687 22.5742 6.5C22.4686 4.67188 22.2086 3.25 21.9486 2.23438ZM8.48306 9.34375V3.65625L14.8259 6.5L8.48306 9.34375Z" fill="#3A5B62"/>
</svg>
